<mxfile host="app.diagrams.net" modified="2024-02-21T14:43:42.100Z" agent="Mozilla/5.0 (X11; Linux x86_64) AppleWebKit/537.36 (KHTML, like Gecko) Chrome/120.0.0.0 Safari/537.36" version="23.1.4" etag="dPixCHBc03-AqbiCE1M0" type="github">
  <diagram name="Page-1" id="xKU2VehDcW6XgIGt75ds">
    <mxGraphModel>
      <root>
        <mxCell id="0" />
        <mxCell id="1" parent="0" />
      </root>
    </mxGraphModel>
  </diagram>
</mxfile>
